<?xml version="1.0" standalone="no"?>
<!DOCTYPE svg PUBLIC "-//W3C//DTD SVG 20010904//EN"
 "http://www.w3.org/TR/2001/REC-SVG-20010904/DTD/svg10.dtd">
<svg version="1.0" xmlns="http://www.w3.org/2000/svg"
 width="800.000000pt" height="800.000000pt" viewBox="0 0 800.000000 800.000000"
 preserveAspectRatio="xMidYMid meet">
<metadata>
Created by potrace 1.11, written by Peter Selinger 2001-2013
</metadata>
<g transform="translate(0.000000,800.000000) scale(0.100000,-0.100000)"
fill="#000000" stroke="none">
<path d="M3101 5143 c-492 -1352 -896 -2463 -898 -2469 -2 -6 118 -55 277
-112 l280 -102 620 225 620 225 620 -225 620 -225 280 102 c159 57 279 106
277 112 -45 134 -1793 4926 -1797 4926 -3 0 -408 -1106 -899 -2457z m1383
-619 c263 -723 477 -1316 475 -1318 -2 -2 -219 75 -481 170 l-478 174 -477
-174 c-263 -95 -480 -172 -482 -170 -5 4 953 2634 959 2634 3 0 220 -592 484
-1316z"/>
<path d="M2958 2282 c-570 -207 -1039 -380 -1042 -383 -11 -10 -268 -721 -262
-726 2 -3 531 186 1175 420 l1171 425 1171 -425 c644 -234 1173 -423 1175
-420 6 6 -253 718 -264 728 -6 5 -2080 760 -2085 759 -1 -1 -469 -171 -1039
-378z"/>
</g>
</svg>
